<mxfile host="app.diagrams.net" modified="2023-09-27T03:26:16.612Z" agent="Mozilla/5.0 (X11; Linux x86_64) AppleWebKit/537.36 (KHTML, like Gecko) Chrome/117.0.0.0 Safari/537.36" etag="5OlgpqoEZW5MJBfaICNe" version="21.8.2" type="github">
  <diagram name="PÃ¡gina-1" id="IEXWqbAxDoZr60gcVviQ">
    <mxGraphModel dx="794" dy="742" grid="1" gridSize="10" guides="1" tooltips="1" connect="1" arrows="1" fold="1" page="1" pageScale="1" pageWidth="827" pageHeight="1169" math="0" shadow="0">
      <root>
        <mxCell id="0" />
        <mxCell id="1" parent="0" />
        <mxCell id="k5fEmQt41i3PxjVUaIgM-11" style="edgeStyle=orthogonalEdgeStyle;rounded=0;orthogonalLoop=1;jettySize=auto;html=1;exitX=0.5;exitY=0.5;exitDx=0;exitDy=0;exitPerimeter=0;" edge="1" parent="1" source="k5fEmQt41i3PxjVUaIgM-1" target="k5fEmQt41i3PxjVUaIgM-6">
          <mxGeometry relative="1" as="geometry" />
        </mxCell>
        <mxCell id="k5fEmQt41i3PxjVUaIgM-12" style="edgeStyle=orthogonalEdgeStyle;rounded=0;orthogonalLoop=1;jettySize=auto;html=1;exitX=0.5;exitY=0.5;exitDx=0;exitDy=0;exitPerimeter=0;" edge="1" parent="1" source="k5fEmQt41i3PxjVUaIgM-1" target="k5fEmQt41i3PxjVUaIgM-5">
          <mxGeometry relative="1" as="geometry" />
        </mxCell>
        <mxCell id="k5fEmQt41i3PxjVUaIgM-1" value="Gerente" style="shape=umlActor;verticalLabelPosition=bottom;verticalAlign=top;html=1;outlineConnect=0;" vertex="1" parent="1">
          <mxGeometry x="90" y="80" width="30" height="60" as="geometry" />
        </mxCell>
        <mxCell id="k5fEmQt41i3PxjVUaIgM-5" value="Cadastra os hoteis&amp;nbsp;" style="rounded=1;whiteSpace=wrap;html=1;" vertex="1" parent="1">
          <mxGeometry x="190" y="50" width="120" height="60" as="geometry" />
        </mxCell>
        <mxCell id="k5fEmQt41i3PxjVUaIgM-6" value="Cadastra os quartos" style="rounded=1;whiteSpace=wrap;html=1;" vertex="1" parent="1">
          <mxGeometry x="190" y="130" width="120" height="60" as="geometry" />
        </mxCell>
      </root>
    </mxGraphModel>
  </diagram>
</mxfile>
